<?xml version="1.0" encoding="UTF-8"?>
<svg width="202px" height="147px" viewBox="0 0 202 147" version="1.1" xmlns="http://www.w3.org/2000/svg" xmlns:xlink="http://www.w3.org/1999/xlink">
    <g id="big_star_Prototype" stroke="none" stroke-width="1" fill="none" fill-rule="evenodd">
        <g id="big_star_Web-Common-(-Adobe-)" transform="translate(-583.000000, -2571.000000)" stroke="#000000">
            <g id="big_star_Group-3-Copy-4" transform="translate(562.000000, 2570.000000)">
                <path d="M144.127114,146.243575 L152.339269,121.051864 L183.911762,131.958719 L176.578167,106.663139 L211.311254,106.33596 L189.960257,85.9633355 L221.054521,74.5 L189.960257,63.0366645 L211.311254,42.6640396 L176.578167,42.3368606 L183.911762,17.0412813 L152.339269,27.9481356 L144.127114,2.7564245 L122,22.7969756 L99.8728858,2.7564245 L91.6607307,27.9481356 L60.0882385,17.0412813 L67.4218329,42.3368606 L32.6887456,42.6640396 L54.0397429,63.0366645 L22.9454792,74.5 L54.0397429,85.9633355 L32.6887456,106.33596 L67.4218329,106.663139 L60.0882385,131.958719 L91.6607307,121.051864 L99.8728858,146.243575 L122,126.203024 L144.127114,146.243575 Z" id="big_star_Star"></path>
            </g>
        </g>
    </g>
</svg>
