<?xml version="1.0" encoding="UTF-8"?>
<svg width="117px" height="85px" viewBox="0 0 117 85" version="1.1" xmlns="http://www.w3.org/2000/svg" xmlns:xlink="http://www.w3.org/1999/xlink">
    <g id="star_Prototype" stroke="none" stroke-width="1" fill="none" fill-rule="evenodd">
        <g id="star_Web-Common-(-Adobe-)-Copy-3" transform="translate(-747.000000, -1524.000000)" stroke="#000000">
            <g id="star_Group-3" transform="translate(735.000000, 1523.000000)">
                <path d="M83.2810674,85.0190528 L88.0271238,70.4148924 L106.225798,76.7211772 L101.992567,62.0743722 L121.973323,61.8855743 L109.674212,50.1136976 L127.55845,43.5 L109.674212,36.8863024 L121.973323,25.1144257 L101.992567,24.9256278 L106.225798,10.2788228 L88.0271238,16.5851076 L83.2810674,1.98094722 L70.5,13.5926307 L57.7189326,1.98094722 L52.9728762,16.5851076 L34.7742017,10.2788228 L39.0074328,24.9256278 L19.0266774,25.1144257 L31.3257879,36.8863024 L13.4415503,43.5 L31.3257879,50.1136976 L19.0266774,61.8855743 L39.0074328,62.0743722 L34.7742017,76.7211772 L52.9728762,70.4148924 L57.7189326,85.0190528 L70.5,73.4073693 L83.2810674,85.0190528 Z" id="star_Star"></path>
            </g>
        </g>
    </g>
</svg>
